HIERARCHY
ROOT Hips
{
  OFFSET -650.117 90.7961 -35.1388
  CHANNELS 6 Xposition Yposition Zposition Zrotation Xrotation Yrotation
  JOINT RightUpLeg
  {
    OFFSET -9.3637 -1.63529 0.069997
    CHANNELS 3 Zrotation Xrotation Yrotation
    JOINT RightLeg
    {
      OFFSET -0.0678671 -41.8916 0.140965
      CHANNELS 3 Zrotation Xrotation Yrotation
      JOINT RightFoot
      {
        OFFSET -0.097916 -40.7118 1.17905
        CHANNELS 3 Zrotation Xrotation Yrotation
        End Site
        {
          OFFSET 0 -7.69 17.5
        }
      }
    }
  }
  JOINT LeftUpLeg
  {
    OFFSET 9.35456 -1.64591 -0.0481707
    CHANNELS 3 Zrotation Xrotation Yrotation
    JOINT LeftLeg
    {
      OFFSET 0.0137955 -41.8916 -0.0319793
      CHANNELS 3 Zrotation Xrotation Yrotation
      JOINT LeftFoot
      {
        OFFSET -0.434125 -42.2293 0.14272
        CHANNELS 3 Zrotation Xrotation Yrotation
        End Site
        {
          OFFSET 0 -7.69 17.5
        }
      }
    }
  }
  JOINT Spine
  {
    OFFSET -0.000389875 14.315 0.0302802
    CHANNELS 3 Zrotation Xrotation Yrotation
    JOINT Spine1
    {
      OFFSET -0.0210168 9.71638 0.0339495
      CHANNELS 3 Zrotation Xrotation Yrotation
      JOINT Spine2
      {
        OFFSET -0.00398093 10.1272 0.0244977
        CHANNELS 3 Zrotation Xrotation Yrotation
        JOINT Spine3
        {
          OFFSET -0.0157361 9.72078 -0.00715032
          CHANNELS 3 Zrotation Xrotation Yrotation
          JOINT Neck
          {
            OFFSET 0.0203677 10.3851 0.0276971
            CHANNELS 3 Zrotation Xrotation Yrotation
            JOINT Head
            {
              OFFSET 0.0195074 9.4693 0.0167206
              CHANNELS 3 Zrotation Xrotation Yrotation
              End Site
              {
                OFFSET 0 15.95 0
              }
            }
          }
          JOINT RightShoulder
          {
            OFFSET -3.18223 6.91524 0.036271
            CHANNELS 3 Zrotation Xrotation Yrotation
            JOINT RightArm
            {
              OFFSET -12.7725 -0.0209029 0.0184468
              CHANNELS 3 Zrotation Xrotation Yrotation
              JOINT RightForeArm
              {
                OFFSET -26.3214 -0.142263 0.00736407
                CHANNELS 3 Zrotation Xrotation Yrotation
                JOINT RightHand
                {
                  OFFSET -25.9649 -0.0181793 0.0897219
                  CHANNELS 3 Zrotation Xrotation Yrotation
                  JOINT RightHandThumb1
                  {
                    OFFSET -2.48905 0.190105 3.12053
                    CHANNELS 3 Zrotation Xrotation Yrotation
                    JOINT RightHandThumb2
                    {
                      OFFSET -3.68274 0 0
                      CHANNELS 3 Zrotation Xrotation Yrotation
                      JOINT RightHandThumb3
                      {
                        OFFSET -2.55832 0 0
                        CHANNELS 3 Zrotation Xrotation Yrotation
                        End Site
                        {
                          OFFSET -2.194 0 0
                        }
                      }
                    }
                  }
                  JOINT RightInHandIndex
                  {
                    OFFSET -3.22368 0.508421 1.97842
                    CHANNELS 3 Zrotation Xrotation Yrotation
                    JOINT RightHandIndex1
                    {
                      OFFSET -5.21684 -0.091368 0.999158
                      CHANNELS 3 Zrotation Xrotation Yrotation
                      JOINT RightHandIndex2
                      {
                        OFFSET -3.61937 0 0
                        CHANNELS 3 Zrotation Xrotation Yrotation
                        JOINT RightHandIndex3
                        {
                          OFFSET -2.0521 0 0
                          CHANNELS 3 Zrotation Xrotation Yrotation
                          End Site
                          {
                            OFFSET -1.805 0 0
                          }
                        }
                      }
                    }
                  }
                  JOINT RightInHandMiddle
                  {
                    OFFSET -3.38211 0.517263 0.756737
                    CHANNELS 3 Zrotation Xrotation Yrotation
                    JOINT RightHandMiddle1
                    {
                      OFFSET -5.17411 -0.084 0.313895
                      CHANNELS 3 Zrotation Xrotation Yrotation
                      JOINT RightHandMiddle2
                      {
                        OFFSET -3.94947 0 0
                        CHANNELS 3 Zrotation Xrotation Yrotation
                        JOINT RightHandMiddle3
                        {
                          OFFSET -2.47579 0 0
                          CHANNELS 3 Zrotation Xrotation Yrotation
                          End Site
                          {
                            OFFSET -1.975 0 0
                          }
                        }
                      }
                    }
                  }
                  JOINT RightInHandRing
                  {
                    OFFSET -3.36516 0.537895 -0.128947
                    CHANNELS 3 Zrotation Xrotation Yrotation
                    JOINT RightHandRing1
                    {
                      OFFSET -4.63474 -0.022105 -0.478947
                      CHANNELS 3 Zrotation Xrotation Yrotation
                      JOINT RightHandRing2
                      {
                        OFFSET -3.44238 0 0
                        CHANNELS 3 Zrotation Xrotation Yrotation
                        JOINT RightHandRing3
                        {
                          OFFSET -2.3881 0 0
                          CHANNELS 3 Zrotation Xrotation Yrotation
                          End Site
                          {
                            OFFSET -1.857 0 0
                          }
                        }
                      }
                    }
                  }
                  JOINT RightInHandPinky
                  {
                    OFFSET -3.16105 0.469368 -1.20179
                    CHANNELS 3 Zrotation Xrotation Yrotation
                    JOINT RightHandPinky1
                    {
                      OFFSET -4.14105 -0.022105 -1.09053
                      CHANNELS 3 Zrotation Xrotation Yrotation
                      JOINT RightHandPinky2
                      {
                        OFFSET -2.75653 0 0
                        CHANNELS 3 Zrotation Xrotation Yrotation
                        JOINT RightHandPinky3
                        {
                          OFFSET -1.74189 0 0
                          CHANNELS 3 Zrotation Xrotation Yrotation
                          End Site
                          {
                            OFFSET -1.645 0 0
                          }
                        }
                      }
                    }
                  }
                }
              }
            }
          }
          JOINT LeftShoulder
          {
            OFFSET 3.20564 6.89109 0.00274842
            CHANNELS 3 Zrotation Xrotation Yrotation
            JOINT LeftArm
            {
              OFFSET 13.6527 -0.337397 -0.593392
              CHANNELS 3 Zrotation Xrotation Yrotation
              JOINT LeftForeArm
              {
                OFFSET 26.4763 0.641327 -0.508755
                CHANNELS 3 Zrotation Xrotation Yrotation
                JOINT LeftHand
                {
                  OFFSET 25.8262 -0.0944446 -0.219839
                  CHANNELS 3 Zrotation Xrotation Yrotation
                  JOINT LeftHandThumb1
                  {
                    OFFSET 2.48905 0.190105 3.12053
                    CHANNELS 3 Zrotation Xrotation Yrotation
                    JOINT LeftHandThumb2
                    {
                      OFFSET 3.68274 0 0
                      CHANNELS 3 Zrotation Xrotation Yrotation
                      JOINT LeftHandThumb3
                      {
                        OFFSET 2.55832 0 0
                        CHANNELS 3 Zrotation Xrotation Yrotation
                        End Site
                        {
                          OFFSET 2.194 0 0
                        }
                      }
                    }
                  }
                  JOINT LeftInHandIndex
                  {
                    OFFSET 3.22368 0.508421 1.97842
                    CHANNELS 3 Zrotation Xrotation Yrotation
                    JOINT LeftHandIndex1
                    {
                      OFFSET 5.21684 -0.091368 0.999158
                      CHANNELS 3 Zrotation Xrotation Yrotation
                      JOINT LeftHandIndex2
                      {
                        OFFSET 3.61937 0 0
                        CHANNELS 3 Zrotation Xrotation Yrotation
                        JOINT LeftHandIndex3
                        {
                          OFFSET 2.0521 0 0
                          CHANNELS 3 Zrotation Xrotation Yrotation
                          End Site
                          {
                            OFFSET 1.805 0 0
                          }
                        }
                      }
                    }
                  }
                  JOINT LeftInHandMiddle
                  {
                    OFFSET 3.38211 0.517263 0.756737
                    CHANNELS 3 Zrotation Xrotation Yrotation
                    JOINT LeftHandMiddle1
                    {
                      OFFSET 5.17411 -0.084 0.313895
                      CHANNELS 3 Zrotation Xrotation Yrotation
                      JOINT LeftHandMiddle2
                      {
                        OFFSET 3.94947 0 0
                        CHANNELS 3 Zrotation Xrotation Yrotation
                        JOINT LeftHandMiddle3
                        {
                          OFFSET 2.47579 0 0
                          CHANNELS 3 Zrotation Xrotation Yrotation
                          End Site
                          {
                            OFFSET 1.975 0 0
                          }
                        }
                      }
                    }
                  }
                  JOINT LeftInHandRing
                  {
                    OFFSET 3.36516 0.537895 -0.128947
                    CHANNELS 3 Zrotation Xrotation Yrotation
                    JOINT LeftHandRing1
                    {
                      OFFSET 4.63474 -0.022105 -0.478947
                      CHANNELS 3 Zrotation Xrotation Yrotation
                      JOINT LeftHandRing2
                      {
                        OFFSET 3.44238 0 0
                        CHANNELS 3 Zrotation Xrotation Yrotation
                        JOINT LeftHandRing3
                        {
                          OFFSET 2.3881 0 0
                          CHANNELS 3 Zrotation Xrotation Yrotation
                          End Site
                          {
                            OFFSET 1.857 0 0
                          }
                        }
                      }
                    }
                  }
                  JOINT LeftInHandPinky
                  {
                    OFFSET 3.16105 0.469368 -1.20179
                    CHANNELS 3 Zrotation Xrotation Yrotation
                    JOINT LeftHandPinky1
                    {
                      OFFSET 4.14105 -0.022105 -1.09053
                      CHANNELS 3 Zrotation Xrotation Yrotation
                      JOINT LeftHandPinky2
                      {
                        OFFSET 2.75653 0 0
                        CHANNELS 3 Zrotation Xrotation Yrotation
                        JOINT LeftHandPinky3
                        {
                          OFFSET 1.74189 0 0
                          CHANNELS 3 Zrotation Xrotation Yrotation
                          End Site
                          {
                            OFFSET 1.645 0 0
                          }
                        }
                      }
                    }
                  }
                }
              }
            }
          }
        }
      }
    }
  }
}
MOTION
Frames:	4
Frame Time:	0.00833333
-634 89.7508 -23.1018 14.3007 -24.1411 -151.53 -15.8083 -43.4888 -16.101 -0.441482 21.094 12.2695 10.8998 -3.20636 3.44967 24.6838 -42.9621 17.8341 1.41298 27.869 -6.80594 -15.5746 -8.7127 4.7521 1.71417 13.0493 7.11613 0.573649 3.28545 1.99597 0.877275 5.40908 3.46006 -0.0295716 -0.35374 -0.660335 -0.0296222 -0.353422 -0.659293 -1.12744 -6.14827 -11.6382 -1.37424 -2.7946 10.0907 60.073 18.6428 59.8099 -8.28416 -45.3927 -18.8329 10.1942 -7.97968 -11.8552 28.184 10.7294 19.1592 -5.93224e-15 -1.59028e-15 -10 -1.10571e-14 -3.18055e-15 -10 3.18055e-15 0 -0 19.9818 0.871897 2.3964 24 -3.57812e-15 6.36111e-15 20 -4.77083e-15 -1.90833e-14 3.18055e-15 0 -0 20 2.38542e-15 -3.18055e-15 24 -1.59028e-15 3.18055e-15 20 1.59028e-15 -3.18055e-15 3.18055e-15 0 -0 19.9748 -1.02565 -2.81938 24 -4.77083e-15 3.18055e-15 20 3.18055e-15 9.54166e-15 3.18055e-15 0 -0 19.7815 -3.00948 -8.30515 24 1.59028e-15 3.18055e-15 20 0 -3.18055e-15 -6.84413 -6.23807 -13.5438 -20.4303 49.9707 -86.2248 -28.8105 -79.7145 -32.6886 5.17582 -17.4267 15.9393 -28.184 10.7294 -19.1592 -5.96607e-15 6.36111e-15 10 -4.84443e-15 0 10 3.08116e-15 -3.18055e-15 5.71506e-16 -19.9818 0.871897 -2.3964 -24 3.18055e-15 3.18055e-15 -20 -3.18055e-15 -9.54166e-15 3.08116e-15 -3.18055e-15 5.71506e-16 -20 3.18055e-15 -1.59028e-15 -24 3.18055e-15 -3.18055e-15 -20 1.59028e-15 9.54166e-15 3.08116e-15 -3.18055e-15 5.71506e-16 -19.9748 -1.02565 2.81938 -24 0 3.18055e-15 -20 -6.36111e-15 9.54166e-15 3.08116e-15 -3.18055e-15 5.71506e-16 -19.7815 -3.00948 8.30515 -24 -6.36111e-15 1.59028e-14 -20 -3.18055e-15 3.18055e-15 
-633.999 89.7502 -23.1029 14.2996 -24.1415 -151.531 -15.8002 -43.4921 -16.0905 -0.450875 21.0999 12.2691 10.8991 -3.21831 3.44716 24.6972 -42.9518 17.8411 1.3933 27.8465 -6.79773 -15.5713 -8.69934 4.7509 1.71534 13.0486 7.11025 0.573493 3.28554 1.99441 0.877111 5.40919 3.4582 -0.0299552 -0.353915 -0.660266 -0.0300063 -0.353578 -0.659227 -1.13021 -6.16512 -11.6472 -1.37035 -2.78711 10.0909 60.0756 18.6331 59.7981 -8.26934 -45.3879 -18.8094 10.219 -8.00089 -11.8532 28.184 10.7294 19.1592 6.98624e-15 -1.59028e-15 -10 5.61801e-15 -4.77083e-15 -10 1.59028e-15 -6.36111e-15 -6.36111e-15 19.9818 0.871897 2.3964 24 2.78299e-15 3.18055e-15 20 0 6.36111e-15 1.59028e-15 -6.36111e-15 -6.36111e-15 20 3.97569e-15 -0 24 0 -9.54166e-15 20 -1.59028e-15 6.36111e-15 1.59028e-15 -6.36111e-15 -6.36111e-15 19.9748 -1.02565 -2.81938 24 0 9.54166e-15 20 -1.59028e-15 -0 1.59028e-15 -6.36111e-15 -6.36111e-15 19.7815 -3.00948 -8.30515 24 3.18055e-15 3.18055e-15 20 -3.18055e-15 3.18055e-15 -6.84598 -6.23678 -13.5379 -20.4131 49.9746 -86.2526 -28.742 -79.7145 -32.6193 5.18037 -17.4311 15.9488 -28.184 10.7294 -19.1592 -4.28361e-15 -3.18055e-15 10 -3.72279e-15 -6.36111e-15 10 4.32357e-15 6.36111e-15 8.77137e-15 -19.9818 0.871897 -2.3964 -24 0 3.18055e-15 -20 3.18055e-15 1.27222e-14 4.32357e-15 6.36111e-15 8.77137e-15 -20 -6.36111e-15 9.54166e-15 -24 -3.18055e-15 6.36111e-15 -20 -7.95139e-15 9.54166e-15 4.32357e-15 6.36111e-15 8.77137e-15 -19.9748 -1.02565 2.81938 -24 3.18055e-15 9.54166e-15 -20 -7.95139e-15 -0 4.32357e-15 6.36111e-15 8.77137e-15 -19.7815 -3.00948 8.30515 -24 0 1.27222e-14 -20 -3.18055e-15 -0 
-633.999 89.7495 -23.1038 14.2986 -24.1443 -151.531 -15.7948 -43.4949 -16.0829 -0.45889 21.1037 12.2692 10.8982 -3.22359 3.44367 24.7113 -42.9376 17.8269 1.36239 27.8286 -6.77011 -15.5696 -8.69446 4.74984 1.71459 13.045 7.10219 0.573351 3.28563 1.99269 0.877228 5.40714 3.45479 -0.0303429 -0.354091 -0.660197 -0.0303945 -0.353735 -0.659161 -1.13348 -6.18282 -11.6611 -1.35569 -2.7765 10.0911 60.0691 18.6339 59.7951 -8.26181 -45.3866 -18.7874 10.2366 -8.02081 -11.8513 28.184 10.7294 19.1592 -9.12804e-15 3.18055e-15 -10 2.42221e-15 0 -10 -1.59028e-15 0 -3.18055e-15 19.9818 0.871897 2.3964 24 -3.57812e-15 -3.18055e-15 20 1.59028e-15 -9.54166e-15 -1.59028e-15 0 -3.18055e-15 20 3.18055e-15 -3.18055e-15 24 2.38542e-15 3.18055e-15 20 -1.59028e-15 3.18055e-15 -1.59028e-15 0 -3.18055e-15 19.9748 -1.02565 -2.81938 24 1.59028e-15 3.18055e-15 20 7.95139e-15 -0 -1.59028e-15 0 -3.18055e-15 19.7815 -3.00948 -8.30515 24 -6.36111e-15 -1.27222e-14 20 0 -0 -6.84809 -6.23543 -13.5263 -20.3883 49.9792 -86.2882 -28.7562 -79.7473 -32.631 5.17552 -17.4098 15.9499 -28.184 10.7294 -19.1592 2.73645e-15 -6.36111e-15 10 -0 0 10 2.78299e-15 0 -1.19271e-15 -19.9818 0.871897 -2.3964 -24 -9.54166e-15 3.18055e-15 -20 3.18055e-15 1.90833e-14 2.78299e-15 0 -1.19271e-15 -20 9.54166e-15 -7.95139e-15 -24 9.54166e-15 9.54166e-15 -20 1.59028e-15 9.54166e-15 2.78299e-15 0 -1.19271e-15 -19.9748 -1.02565 2.81938 -24 3.18055e-15 3.18055e-15 -20 1.11319e-14 3.18055e-15 2.78299e-15 0 -1.19271e-15 -19.7815 -3.00948 8.30515 -24 3.18055e-15 -3.18055e-15 -20 0 1.59028e-14 
-633.999 89.7488 -23.1046 14.2921 -24.1515 -151.53 -15.7971 -43.4946 -16.0802 -0.462851 21.0957 12.2728 10.8969 -3.21909 3.43956 24.7149 -42.9336 17.813 1.33939 27.8243 -6.74733 -15.5678 -8.69662 4.7489 1.71239 13.0415 7.09154 0.573241 3.28536 1.99072 0.877588 5.4042 3.44946 -0.0307353 -0.354266 -0.660129 -0.0307872 -0.353891 -0.659095 -1.13915 -6.2047 -11.6775 -1.34445 -2.76679 10.0914 60.0645 18.6352 59.7966 -8.26375 -45.3822 -18.7755 10.2559 -8.0351 -11.8501 28.184 10.7294 19.1592 6.49306e-15 4.77083e-15 -10 -2.98303e-15 -3.18055e-15 -10 1.59028e-15 -3.18055e-15 3.18055e-15 19.9818 0.871897 2.3964 24 1.59028e-15 3.18055e-15 20 -4.77083e-15 -3.18055e-15 1.59028e-15 -3.18055e-15 3.18055e-15 20 -3.97569e-15 -6.36111e-15 24 -3.97569e-15 -9.54166e-15 20 4.77083e-15 6.36111e-15 1.59028e-15 -3.18055e-15 3.18055e-15 19.9748 -1.02565 -2.81938 24 -3.18055e-15 3.18055e-15 20 -3.18055e-15 3.18055e-15 1.59028e-15 -3.18055e-15 3.18055e-15 19.7815 -3.00948 -8.30515 24 -1.59028e-15 9.54166e-15 20 -3.18055e-15 6.36111e-15 -6.85192 -6.23368 -13.5118 -20.3582 49.9852 -86.3299 -28.8131 -79.7807 -32.6867 5.17421 -17.4015 15.9512 -28.184 10.7294 -19.1592 -2.6688e-15 -3.18055e-15 10 -1.05399e-15 -3.18055e-15 10 5.8393e-15 -3.18055e-15 -2.78299e-15 -19.9818 0.871897 -2.3964 -24 -3.18055e-15 3.18055e-15 -20 0 -0 5.8393e-15 -3.18055e-15 -2.78299e-15 -20 -6.36111e-15 -4.77083e-15 -24 3.18055e-15 -0 -20 -1.59028e-15 -0 5.8393e-15 -3.18055e-15 -2.78299e-15 -19.9748 -1.02565 2.81938 -24 -3.18055e-15 9.54166e-15 -20 0 -0 5.8393e-15 -3.18055e-15 -2.78299e-15 -19.7815 -3.00948 8.30515 -24 3.18055e-15 -0 -20 3.18055e-15 -3.18055e-15 
